<?xml version="1.0" encoding="UTF-8" standalone="no"?>
<!DOCTYPE svg PUBLIC "-//W3C//DTD SVG 1.1//EN"
 "http://www.w3.org/Graphics/SVG/1.1/DTD/svg11.dtd">
<!-- Generated by graphviz version 2.40.1 (20161225.0304)
 -->
<!-- Title: ai_graph Pages: 1 -->
<svg width="1183pt" height="425pt"
 viewBox="0.00 0.00 1182.92 425.00" xmlns="http://www.w3.org/2000/svg" xmlns:xlink="http://www.w3.org/1999/xlink">
<g id="graph0" class="graph" transform="scale(1 1) rotate(0) translate(4 421)">
<title>ai_graph</title>
<polygon fill="#ffffff" stroke="transparent" points="-4,4 -4,-421 1178.9212,-421 1178.9212,4 -4,4"/>
<g id="clust1" class="cluster">
<title>cluster_capabilities</title>
<polygon fill="#d3d3d3" stroke="#000000" points="4,-8 4,-409 169.4628,-409 169.4628,-8 4,-8"/>
<text text-anchor="middle" x="86.7314" y="-392.4" font-family="Times,serif" font-size="14.00" fill="#000000">Technological Capabilities</text>
</g>
<g id="clust2" class="cluster">
<title>cluster_challenges</title>
<polygon fill="#d3d3d3" stroke="#000000" points="189.4628,-170 189.4628,-409 392.6114,-409 392.6114,-170 189.4628,-170"/>
<text text-anchor="middle" x="291.0371" y="-392.4" font-family="Times,serif" font-size="14.00" fill="#000000">Limitations and Challenges</text>
</g>
<g id="clust3" class="cluster">
<title>cluster_advancements</title>
<polygon fill="#d3d3d3" stroke="#000000" points="412.6114,-278 412.6114,-409 953.5208,-409 953.5208,-278 412.6114,-278"/>
<text text-anchor="middle" x="683.0661" y="-392.4" font-family="Times,serif" font-size="14.00" fill="#000000">Advancements &amp; Investments</text>
</g>
<g id="clust4" class="cluster">
<title>cluster_outcomes</title>
<polygon fill="#d3d3d3" stroke="#000000" points="774.8918,-139 774.8918,-270 1166.9212,-270 1166.9212,-139 774.8918,-139"/>
<text text-anchor="middle" x="970.9065" y="-253.4" font-family="Times,serif" font-size="14.00" fill="#000000">Business Drivers &amp; Outcomes</text>
</g>
<g id="clust5" class="cluster">
<title>cluster_risks</title>
<polygon fill="#d3d3d3" stroke="#000000" points="206.5883,-31 206.5883,-162 594.3603,-162 594.3603,-31 206.5883,-31"/>
<text text-anchor="middle" x="400.4743" y="-145.4" font-family="Times,serif" font-size="14.00" fill="#000000">Barriers &amp; Risks</text>
</g>
<!-- Foundation Models -->
<g id="node1" class="node">
<title>Foundation Models</title>
<polygon fill="#add8e6" stroke="#000000" points="153.765,-376 18.6978,-376 18.6978,-340 153.765,-340 153.765,-376"/>
<text text-anchor="middle" x="86.2314" y="-353.8" font-family="Helvetica,sans-Serif" font-size="14.00" fill="#000000">Foundation Models</text>
</g>
<!-- Limited Reasoning -->
<g id="node8" class="node">
<title>Limited Reasoning</title>
<polygon fill="#add8e6" stroke="#000000" points="356.9487,-376 225.1255,-376 225.1255,-340 356.9487,-340 356.9487,-376"/>
<text text-anchor="middle" x="291.0371" y="-353.8" font-family="Helvetica,sans-Serif" font-size="14.00" fill="#000000">Limited Reasoning</text>
</g>
<!-- Foundation Models&#45;&gt;Limited Reasoning -->
<g id="edge1" class="edge">
<title>Foundation Models&#45;&gt;Limited Reasoning</title>
<path fill="none" stroke="#000000" d="M153.86,-358C173.3962,-358 194.8485,-358 214.8667,-358"/>
<polygon fill="#000000" stroke="#000000" points="214.874,-361.5001 224.874,-358 214.8739,-354.5001 214.874,-361.5001"/>
</g>
<!-- NLP -->
<g id="node2" class="node">
<title>NLP</title>
<polygon fill="#add8e6" stroke="#000000" points="113.2314,-322 59.2314,-322 59.2314,-286 113.2314,-286 113.2314,-322"/>
<text text-anchor="middle" x="86.2314" y="-299.8" font-family="Helvetica,sans-Serif" font-size="14.00" fill="#000000">NLP</text>
</g>
<!-- Computer Vision -->
<g id="node3" class="node">
<title>Computer Vision</title>
<polygon fill="#add8e6" stroke="#000000" points="146.1867,-268 26.2761,-268 26.2761,-232 146.1867,-232 146.1867,-268"/>
<text text-anchor="middle" x="86.2314" y="-245.8" font-family="Helvetica,sans-Serif" font-size="14.00" fill="#000000">Computer Vision</text>
</g>
<!-- Planning Algorithms -->
<g id="node4" class="node">
<title>Planning Algorithms</title>
<polygon fill="#add8e6" stroke="#000000" points="156.695,-214 15.7678,-214 15.7678,-178 156.695,-178 156.695,-214"/>
<text text-anchor="middle" x="86.2314" y="-191.8" font-family="Helvetica,sans-Serif" font-size="14.00" fill="#000000">Planning Algorithms</text>
</g>
<!-- Chain&#45;of&#45;Thought -->
<g id="node5" class="node">
<title>Chain&#45;of&#45;Thought</title>
<polygon fill="#add8e6" stroke="#000000" points="148.643,-160 23.8198,-160 23.8198,-124 148.643,-124 148.643,-160"/>
<text text-anchor="middle" x="86.2314" y="-137.8" font-family="Helvetica,sans-Serif" font-size="14.00" fill="#000000">Chain&#45;of&#45;Thought</text>
</g>
<!-- Graph of Thoughts -->
<g id="node6" class="node">
<title>Graph of Thoughts</title>
<polygon fill="#add8e6" stroke="#000000" points="152.4413,-106 20.0215,-106 20.0215,-70 152.4413,-70 152.4413,-106"/>
<text text-anchor="middle" x="86.2314" y="-83.8" font-family="Helvetica,sans-Serif" font-size="14.00" fill="#000000">Graph of Thoughts</text>
</g>
<!-- Multi&#45;modal Models -->
<g id="node7" class="node">
<title>Multi&#45;modal Models</title>
<polygon fill="#add8e6" stroke="#000000" points="155.06,-52 17.4028,-52 17.4028,-16 155.06,-16 155.06,-52"/>
<text text-anchor="middle" x="86.2314" y="-29.8" font-family="Helvetica,sans-Serif" font-size="14.00" fill="#000000">Multi&#45;modal Models</text>
</g>
<!-- R&amp;D Investment -->
<g id="node12" class="node">
<title>R&amp;D Investment</title>
<polygon fill="#add8e6" stroke="#000000" points="566.4718,-376 448.6654,-376 448.6654,-340 566.4718,-340 566.4718,-376"/>
<text text-anchor="middle" x="507.5686" y="-353.8" font-family="Helvetica,sans-Serif" font-size="14.00" fill="#000000">R&amp;D Investment</text>
</g>
<!-- Limited Reasoning&#45;&gt;R&amp;D Investment -->
<g id="edge2" class="edge">
<title>Limited Reasoning&#45;&gt;R&amp;D Investment</title>
<path fill="none" stroke="#000000" d="M357.1803,-358C382.8726,-358 412.3144,-358 438.2975,-358"/>
<polygon fill="#000000" stroke="#000000" points="438.4452,-361.5001 448.4451,-358 438.4451,-354.5001 438.4452,-361.5001"/>
</g>
<!-- Safety &amp; Security Concerns -->
<g id="node9" class="node">
<title>Safety &amp; Security Concerns</title>
<polygon fill="#add8e6" stroke="#000000" points="384.6858,-322 197.3884,-322 197.3884,-286 384.6858,-286 384.6858,-322"/>
<text text-anchor="middle" x="291.0371" y="-299.8" font-family="Helvetica,sans-Serif" font-size="14.00" fill="#000000">Safety &amp; Security Concerns</text>
</g>
<!-- Regulatory Challenges -->
<g id="node19" class="node">
<title>Regulatory Challenges</title>
<polygon fill="#add8e6" stroke="#000000" points="586.1525,-129 428.9847,-129 428.9847,-93 586.1525,-93 586.1525,-129"/>
<text text-anchor="middle" x="507.5686" y="-106.8" font-family="Helvetica,sans-Serif" font-size="14.00" fill="#000000">Regulatory Challenges</text>
</g>
<!-- Safety &amp; Security Concerns&#45;&gt;Regulatory Challenges -->
<g id="edge11" class="edge">
<title>Safety &amp; Security Concerns&#45;&gt;Regulatory Challenges</title>
<path fill="none" stroke="#000000" d="M377.0204,-285.9905C382.5017,-283.3879 387.7591,-280.4092 392.6114,-277 443.4294,-241.2959 478.9678,-175.505 496.0361,-138.3716"/>
<polygon fill="#000000" stroke="#000000" points="499.275,-139.7024 500.1671,-129.1452 492.8862,-136.8419 499.275,-139.7024"/>
</g>
<!-- Biases &amp; Ethics -->
<g id="node10" class="node">
<title>Biases &amp; Ethics</title>
<polygon fill="#add8e6" stroke="#000000" points="347.78,-268 234.2942,-268 234.2942,-232 347.78,-232 347.78,-268"/>
<text text-anchor="middle" x="291.0371" y="-245.8" font-family="Helvetica,sans-Serif" font-size="14.00" fill="#000000">Biases &amp; Ethics</text>
</g>
<!-- Public Trust -->
<g id="node20" class="node">
<title>Public Trust</title>
<polygon fill="#add8e6" stroke="#000000" points="335.9292,-129 246.145,-129 246.145,-93 335.9292,-93 335.9292,-129"/>
<text text-anchor="middle" x="291.0371" y="-106.8" font-family="Helvetica,sans-Serif" font-size="14.00" fill="#000000">Public Trust</text>
</g>
<!-- Biases &amp; Ethics&#45;&gt;Public Trust -->
<g id="edge8" class="edge">
<title>Biases &amp; Ethics&#45;&gt;Public Trust</title>
<path fill="none" stroke="#000000" d="M234.2476,-248.5178C211.6557,-244.4868 188.82,-235.0104 179.4628,-214 172.4109,-198.166 172.4109,-190.834 179.4628,-175 189.963,-151.4232 213.7238,-136.09 236.6314,-126.3625"/>
<polygon fill="#000000" stroke="#000000" points="238.0009,-129.5848 246.0144,-122.6541 235.4279,-123.0748 238.0009,-129.5848"/>
</g>
<!-- Computational Intensity -->
<g id="node11" class="node">
<title>Computational Intensity</title>
<polygon fill="#add8e6" stroke="#000000" points="372.2939,-214 209.7803,-214 209.7803,-178 372.2939,-178 372.2939,-214"/>
<text text-anchor="middle" x="291.0371" y="-191.8" font-family="Helvetica,sans-Serif" font-size="14.00" fill="#000000">Computational Intensity</text>
</g>
<!-- Advanced LLMs -->
<g id="node15" class="node">
<title>Advanced LLMs</title>
<polygon fill="#add8e6" stroke="#000000" points="747.0754,-362 630.3422,-362 630.3422,-326 747.0754,-326 747.0754,-362"/>
<text text-anchor="middle" x="688.7088" y="-339.8" font-family="Helvetica,sans-Serif" font-size="14.00" fill="#000000">Advanced LLMs</text>
</g>
<!-- R&amp;D Investment&#45;&gt;Advanced LLMs -->
<g id="edge3" class="edge">
<title>R&amp;D Investment&#45;&gt;Advanced LLMs</title>
<path fill="none" stroke="#000000" d="M566.63,-353.4352C583.7183,-352.1145 602.5161,-350.6617 620.1323,-349.3002"/>
<polygon fill="#000000" stroke="#000000" points="620.6456,-352.771 630.3461,-348.5107 620.1061,-345.7918 620.6456,-352.771"/>
</g>
<!-- Verification &amp; Refinement -->
<g id="node13" class="node">
<title>Verification &amp; Refinement</title>
<polygon fill="#add8e6" stroke="#000000" points="594.483,-322 420.6542,-322 420.6542,-286 594.483,-286 594.483,-322"/>
<text text-anchor="middle" x="507.5686" y="-299.8" font-family="Helvetica,sans-Serif" font-size="14.00" fill="#000000">Verification &amp; Refinement</text>
</g>
<!-- Integration with Tools -->
<g id="node14" class="node">
<title>Integration with Tools</title>
<polygon fill="#add8e6" stroke="#000000" points="945.5341,-349 796.4809,-349 796.4809,-313 945.5341,-313 945.5341,-349"/>
<text text-anchor="middle" x="871.0075" y="-326.8" font-family="Helvetica,sans-Serif" font-size="14.00" fill="#000000">Integration with Tools</text>
</g>
<!-- Industry Transformation -->
<g id="node17" class="node">
<title>Industry Transformation</title>
<polygon fill="#add8e6" stroke="#000000" points="1158.8203,-237 995.2241,-237 995.2241,-201 1158.8203,-201 1158.8203,-237"/>
<text text-anchor="middle" x="1077.0222" y="-214.8" font-family="Helvetica,sans-Serif" font-size="14.00" fill="#000000">Industry Transformation</text>
</g>
<!-- Integration with Tools&#45;&gt;Industry Transformation -->
<g id="edge5" class="edge">
<title>Integration with Tools&#45;&gt;Industry Transformation</title>
<path fill="none" stroke="#000000" d="M904.5658,-312.756C940.1378,-293.4173 996.3928,-262.8342 1034.9162,-241.891"/>
<polygon fill="#000000" stroke="#000000" points="1036.7057,-244.9019 1043.8196,-237.0506 1033.3622,-238.752 1036.7057,-244.9019"/>
</g>
<!-- Advanced LLMs&#45;&gt;Integration with Tools -->
<g id="edge4" class="edge">
<title>Advanced LLMs&#45;&gt;Integration with Tools</title>
<path fill="none" stroke="#000000" d="M747.1415,-339.8331C759.5899,-338.9454 772.977,-337.9907 786.1861,-337.0487"/>
<polygon fill="#000000" stroke="#000000" points="786.5083,-340.5348 796.2339,-336.3322 786.0103,-333.5525 786.5083,-340.5348"/>
</g>
<!-- Decision&#45;Making Demand -->
<g id="node16" class="node">
<title>Decision&#45;Making Demand</title>
<polygon fill="#add8e6" stroke="#000000" points="959.2391,-237 782.7759,-237 782.7759,-201 959.2391,-201 959.2391,-237"/>
<text text-anchor="middle" x="871.0075" y="-214.8" font-family="Helvetica,sans-Serif" font-size="14.00" fill="#000000">Decision&#45;Making Demand</text>
</g>
<!-- Decision&#45;Making Demand&#45;&gt;Industry Transformation -->
<g id="edge7" class="edge">
<title>Decision&#45;Making Demand&#45;&gt;Industry Transformation</title>
<path fill="none" stroke="#000000" d="M959.2728,-212.3118C967.8288,-212.2396 976.5233,-212.2307 985.1137,-212.2849"/>
<polygon fill="#000000" stroke="#000000" points="985.1036,-215.7849 995.1356,-212.3777 985.1685,-208.7852 985.1036,-215.7849"/>
</g>
<!-- Industry Transformation&#45;&gt;Decision&#45;Making Demand -->
<g id="edge6" class="edge">
<title>Industry Transformation&#45;&gt;Decision&#45;Making Demand</title>
<path fill="none" stroke="#000000" d="M995.1356,-225.6223C986.6639,-225.7261 977.9931,-225.7666 969.3659,-225.7439"/>
<polygon fill="#000000" stroke="#000000" points="969.292,-222.2435 959.2728,-225.6882 969.2533,-229.2434 969.292,-222.2435"/>
</g>
<!-- Productivity Growth -->
<g id="node18" class="node">
<title>Productivity Growth</title>
<polygon fill="#add8e6" stroke="#000000" points="939.8515,-183 802.1635,-183 802.1635,-147 939.8515,-147 939.8515,-183"/>
<text text-anchor="middle" x="871.0075" y="-160.8" font-family="Helvetica,sans-Serif" font-size="14.00" fill="#000000">Productivity Growth</text>
</g>
<!-- Public Trust&#45;&gt;Regulatory Challenges -->
<g id="edge9" class="edge">
<title>Public Trust&#45;&gt;Regulatory Challenges</title>
<path fill="none" stroke="#000000" d="M336.1656,-111C360.0093,-111 390.1331,-111 418.4515,-111"/>
<polygon fill="#000000" stroke="#000000" points="418.7881,-114.5001 428.788,-111 418.788,-107.5001 418.7881,-114.5001"/>
</g>
<!-- Cybersecurity Threats -->
<g id="node21" class="node">
<title>Cybersecurity Threats</title>
<polygon fill="#add8e6" stroke="#000000" points="367.4347,-75 214.6395,-75 214.6395,-39 367.4347,-39 367.4347,-75"/>
<text text-anchor="middle" x="291.0371" y="-52.8" font-family="Helvetica,sans-Serif" font-size="14.00" fill="#000000">Cybersecurity Threats</text>
</g>
<!-- Cybersecurity Threats&#45;&gt;Safety &amp; Security Concerns -->
<g id="edge10" class="edge">
<title>Cybersecurity Threats&#45;&gt;Safety &amp; Security Concerns</title>
<path fill="none" stroke="#000000" d="M214.4481,-63.6617C199.3006,-69.1457 186.046,-78.2184 179.4628,-93 171.552,-110.7625 171.552,-250.2375 179.4628,-268 181.8953,-273.4618 185.2386,-278.1441 189.2516,-282.154"/>
<polygon fill="#000000" stroke="#000000" points="187.2057,-285.0035 197.1465,-288.6686 191.661,-279.6043 187.2057,-285.0035"/>
</g>
</g>
</svg>

